<svg width="26" height="26" viewBox="0 0 26 26" fill="none" xmlns="http://www.w3.org/2000/svg">
<path d="M4.875 14.1782V21.1251C4.875 21.3406 4.9606 21.5472 5.11298 21.6996C5.26535 21.852 5.47201 21.9376 5.6875 21.9376H20.3125C20.528 21.9376 20.7347 21.852 20.887 21.6996C21.0394 21.5472 21.125 21.3406 21.125 21.1251V14.1782" stroke="#202020" stroke-linecap="round" stroke-linejoin="round"/>
<path d="M5.48438 4.0625H20.5156C20.6919 4.06395 20.863 4.12198 21.0038 4.22803C21.1446 4.33408 21.2476 4.48255 21.2977 4.65156L22.75 9.75H3.25L4.70234 4.65156C4.75239 4.48255 4.8554 4.33408 4.99619 4.22803C5.13698 4.12198 5.30812 4.06395 5.48438 4.0625V4.0625Z" stroke="#202020" stroke-linecap="round" stroke-linejoin="round"/>
<path d="M9.75 9.75V11.375C9.75 12.237 9.40759 13.0636 8.7981 13.6731C8.1886 14.2826 7.36195 14.625 6.5 14.625C5.63805 14.625 4.8114 14.2826 4.2019 13.6731C3.59241 13.0636 3.25 12.237 3.25 11.375V9.75" stroke="#202020" stroke-linecap="round" stroke-linejoin="round"/>
<path d="M16.25 9.75V11.375C16.25 12.237 15.9076 13.0636 15.2981 13.6731C14.6886 14.2826 13.862 14.625 13 14.625C12.138 14.625 11.3114 14.2826 10.7019 13.6731C10.0924 13.0636 9.75 12.237 9.75 11.375V9.75" stroke="#202020" stroke-linecap="round" stroke-linejoin="round"/>
<path d="M22.75 9.75V11.375C22.75 12.237 22.4076 13.0636 21.7981 13.6731C21.1886 14.2826 20.362 14.625 19.5 14.625C18.638 14.625 17.8114 14.2826 17.2019 13.6731C16.5924 13.0636 16.25 12.237 16.25 11.375V9.75" stroke="#202020" stroke-linecap="round" stroke-linejoin="round"/>
</svg>
