<svg width="48" height="46" viewBox="0 0 48 46" fill="none" xmlns="http://www.w3.org/2000/svg">
<rect width="48" height="46" rx="4" fill="#F68402"/>
<path d="M19.8398 22.625C20.8046 24.6172 22.4155 26.224 24.4102 27.1836C24.5573 27.2532 24.72 27.2834 24.8824 27.2711C25.0447 27.2587 25.201 27.2044 25.3359 27.1133L28.2656 25.1562C28.3951 25.0684 28.5446 25.0149 28.7004 25.0005C28.8561 24.9862 29.013 25.0115 29.1563 25.0742L34.6406 27.4297C34.8281 27.5077 34.9847 27.6451 35.0863 27.8209C35.1879 27.9967 35.229 28.2009 35.2031 28.4023C35.0293 29.759 34.3671 31.0059 33.3404 31.9097C32.3137 32.8135 30.9928 33.3122 29.625 33.3125C25.3981 33.3125 21.3443 31.6334 18.3555 28.6445C15.3666 25.6556 13.6875 21.6019 13.6875 17.375C13.6878 16.0072 14.1865 14.6863 15.0903 13.6596C15.994 12.6329 17.2409 11.9707 18.5977 11.7969C18.799 11.771 19.0033 11.812 19.1791 11.9137C19.3548 12.0153 19.4923 12.1719 19.5703 12.3594L21.9258 17.8554C21.987 17.9965 22.0127 18.1504 22.0004 18.3037C21.9881 18.457 21.9384 18.6049 21.8555 18.7344L19.8984 21.7109C19.8113 21.8455 19.7602 22.0003 19.7499 22.1603C19.7397 22.3203 19.7706 22.4803 19.8398 22.625V22.625Z" stroke="white" stroke-width="1.6" stroke-linecap="round" stroke-linejoin="round"/>
</svg>
