<svg width="48" height="46" viewBox="0 0 48 46" fill="none" xmlns="http://www.w3.org/2000/svg">
<rect width="48" height="46" rx="4" fill="#F68402"/>
<path d="M28.6875 21.125V19.7188C28.6875 19.0971 28.4406 18.501 28.001 18.0615C27.5615 17.6219 26.9654 17.375 26.3438 17.375C25.7222 17.375 25.126 17.6219 24.6865 18.0615C24.2469 18.501 24 19.0971 24 19.7188V12.2188C24 11.5971 23.7531 11.001 23.3135 10.5615C22.874 10.1219 22.2779 9.875 21.6563 9.875C21.0347 9.875 20.4385 10.1219 19.999 10.5615C19.5594 11.001 19.3125 11.5971 19.3125 12.2188V26.4336L16.7461 21.9805C16.4353 21.4412 15.923 21.0475 15.322 20.886C14.7209 20.7245 14.0803 20.8083 13.541 21.1191C13.0018 21.4299 12.6081 21.9422 12.4466 22.5433C12.285 23.1444 12.3689 23.785 12.6797 24.3242C16.5 32.375 18.8203 35.1875 24 35.1875C25.2312 35.1875 26.4502 34.945 27.5877 34.4739C28.7251 34.0027 29.7586 33.3122 30.6291 32.4416C31.4997 31.5711 32.1902 30.5376 32.6614 29.4002C33.1325 28.2627 33.375 27.0436 33.375 25.8125V21.125C33.375 20.5034 33.1281 19.9073 32.6885 19.4677C32.249 19.0282 31.6529 18.7812 31.0313 18.7812C30.4097 18.7812 29.8135 19.0282 29.374 19.4677C28.9344 19.9073 28.6875 20.5034 28.6875 21.125V21.125Z" stroke="white" stroke-width="1.5" stroke-linecap="round" stroke-linejoin="round"/>
</svg>
