<svg width="48" height="46" viewBox="0 0 48 46" fill="none" xmlns="http://www.w3.org/2000/svg">
<rect width="48" height="46" rx="4" fill="#F68402"/>
<path d="M29.625 17.375H34.6172C34.804 17.3738 34.9868 17.4291 35.1415 17.5337C35.2963 17.6383 35.4158 17.7872 35.4844 17.961L37.125 22.0625" stroke="white" stroke-width="1.6" stroke-linecap="round" stroke-linejoin="round"/>
<path d="M10.875 24.875H29.625" stroke="white" stroke-width="1.6" stroke-linecap="round" stroke-linejoin="round"/>
<path d="M31.0312 33.3125C32.5846 33.3125 33.8438 32.0533 33.8438 30.5C33.8438 28.9467 32.5846 27.6875 31.0312 27.6875C29.4779 27.6875 28.2188 28.9467 28.2188 30.5C28.2188 32.0533 29.4779 33.3125 31.0312 33.3125Z" stroke="white" stroke-width="1.6" stroke-miterlimit="10"/>
<path d="M16.9688 33.3125C18.5221 33.3125 19.7812 32.0533 19.7812 30.5C19.7812 28.9467 18.5221 27.6875 16.9688 27.6875C15.4154 27.6875 14.1562 28.9467 14.1562 30.5C14.1562 32.0533 15.4154 33.3125 16.9688 33.3125Z" stroke="white" stroke-width="1.6" stroke-miterlimit="10"/>
<path d="M28.2188 30.5H19.7812" stroke="white" stroke-width="1.6" stroke-linecap="round" stroke-linejoin="round"/>
<path d="M14.1562 30.5H11.8125C11.5639 30.5 11.3254 30.4012 11.1496 30.2254C10.9738 30.0496 10.875 29.8111 10.875 29.5625V16.4375C10.875 16.1889 10.9738 15.9504 11.1496 15.7746C11.3254 15.5988 11.5639 15.5 11.8125 15.5H29.625V28.0625" stroke="white" stroke-width="1.6" stroke-linecap="round" stroke-linejoin="round"/>
<path d="M29.625 22.0625H37.125V29.5625C37.125 29.8111 37.0262 30.0496 36.8504 30.2254C36.6746 30.4012 36.4361 30.5 36.1875 30.5H33.8438" stroke="white" stroke-width="1.6" stroke-linecap="round" stroke-linejoin="round"/>
</svg>
