<svg width="48" height="46" viewBox="0 0 48 46" fill="none" xmlns="http://www.w3.org/2000/svg">
<rect width="48" height="46" rx="4" fill="#F68402"/>
<path d="M13.6875 15.5V30.5C13.6875 30.9973 13.885 31.4742 14.2367 31.8258C14.5883 32.1775 15.0652 32.375 15.5625 32.375H34.3125C34.5611 32.375 34.7996 32.2762 34.9754 32.1004C35.1512 31.9246 35.25 31.6861 35.25 31.4375V18.3125C35.25 18.0639 35.1512 17.8254 34.9754 17.6496C34.7996 17.4738 34.5611 17.375 34.3125 17.375H15.5625C15.0652 17.375 14.5883 17.1775 14.2367 16.8258C13.885 16.4742 13.6875 15.9973 13.6875 15.5ZM13.6875 15.5C13.6875 15.0027 13.885 14.5258 14.2367 14.1742C14.5883 13.8225 15.0652 13.625 15.5625 13.625H31.5" stroke="white" stroke-width="1.6" stroke-linecap="round" stroke-linejoin="round"/>
<path d="M30.0938 26.2812C30.8704 26.2812 31.5 25.6517 31.5 24.875C31.5 24.0983 30.8704 23.4688 30.0938 23.4688C29.3171 23.4688 28.6875 24.0983 28.6875 24.875C28.6875 25.6517 29.3171 26.2812 30.0938 26.2812Z" fill="white"/>
</svg>
