<svg width="61" height="61" viewBox="0 0 61 61" fill="none" xmlns="http://www.w3.org/2000/svg">
<g filter="url(#filter0_d_80_44)">
<circle cx="30.5" cy="30.5" r="24.5" fill="#675DA9"/>
</g>
<path d="M40.4456 20.3519C39.7757 19.7359 37.0636 17.764 31.018 17.737C31.018 17.737 23.8918 17.3047 20.4179 20.4923C18.4838 22.4265 17.803 25.2521 17.7328 28.7638C17.6626 32.2702 17.5707 38.8452 23.9081 40.6281H23.9135L23.9081 43.3456C23.9081 43.3456 23.8702 44.4478 24.5942 44.6693C25.4694 44.9394 25.9881 44.102 26.8255 43.1998C27.2847 42.7027 27.9168 41.9788 28.3977 41.4223C32.7306 41.7843 36.0641 40.9523 36.4423 40.828C37.3175 40.5417 42.2717 39.9095 43.0767 33.3345C43.9088 26.5703 42.6715 22.286 40.4456 20.3519ZM41.1804 32.859C40.4997 38.3482 36.4855 38.6939 35.7453 38.9317C35.432 39.0343 32.5037 39.7637 28.8191 39.5205C28.8191 39.5205 26.0745 42.8324 25.2209 43.6914C25.0858 43.8265 24.9292 43.8805 24.8265 43.8535C24.6806 43.8157 24.6374 43.6428 24.6428 43.3889C24.6428 43.0215 24.6644 38.8668 24.6644 38.8668C24.659 38.8668 24.659 38.8668 24.6644 38.8668C19.2996 37.3811 19.6129 31.7839 19.6724 28.8557C19.7318 25.9274 20.2829 23.5232 21.9199 21.9078C24.8535 19.2497 30.9099 19.6441 30.9099 19.6441C36.0208 19.6657 38.4683 21.2055 39.0355 21.7187C40.9211 23.3395 41.8828 27.2024 41.1804 32.859Z" fill="white"/>
<path d="M33.5086 28.9588C33.3303 28.9588 33.1791 28.8183 33.1683 28.6347C33.1088 27.4731 32.5632 26.9058 31.4502 26.8464C31.2611 26.8356 31.1152 26.6735 31.1261 26.4844C31.1369 26.2953 31.2989 26.1494 31.488 26.1602C32.9576 26.2413 33.7788 27.0841 33.8544 28.5968C33.8652 28.7859 33.7193 28.948 33.5302 28.9534C33.5194 28.9588 33.514 28.9588 33.5086 28.9588Z" fill="white"/>
<path d="M35.2591 29.542H35.2537C35.0646 29.5366 34.9133 29.3799 34.9187 29.1908C34.9457 28.0239 34.6107 27.0784 33.8976 26.3004C33.1898 25.5224 32.2119 25.101 30.9207 25.0092C30.7316 24.993 30.5911 24.8309 30.6074 24.6418C30.6236 24.4527 30.7856 24.3122 30.9747 24.3284C32.4335 24.4365 33.5842 24.9443 34.4054 25.8412C35.232 26.7434 35.6318 27.8726 35.6048 29.207C35.5994 29.3961 35.4427 29.542 35.2591 29.542Z" fill="white"/>
<path d="M37.0528 30.2442C36.8637 30.2442 36.7124 30.0929 36.7124 29.9039C36.6962 27.813 36.0965 26.2192 34.8755 25.0252C33.6707 23.8475 32.1417 23.2478 30.3426 23.2316C30.1535 23.2316 30.0023 23.0749 30.0023 22.8858C30.0023 22.6967 30.1589 22.5454 30.3426 22.5454C32.3254 22.5616 34.011 23.2261 35.3455 24.5336C36.6854 25.841 37.3715 27.6455 37.3931 29.893C37.3985 30.0875 37.2472 30.2442 37.0528 30.2442C37.0582 30.2442 37.0582 30.2442 37.0528 30.2442Z" fill="white"/>
<path d="M31.5312 33.1882C31.5312 33.1882 32.0121 33.2314 32.2714 32.9126L32.7739 32.2805C33.017 31.9672 33.6059 31.7673 34.1786 32.086C34.4973 32.2643 35.0754 32.6209 35.432 32.8856C35.8156 33.1665 36.5936 33.8149 36.599 33.8203C36.9717 34.1336 37.0582 34.5929 36.8043 35.0845C36.8043 35.0845 36.8043 35.0899 36.8043 35.0953C36.5449 35.5545 36.1938 35.9867 35.7561 36.3865C35.7507 36.3865 35.7507 36.3919 35.7453 36.3919C35.3834 36.6945 35.0268 36.8674 34.681 36.9052C34.6378 36.916 34.5892 36.916 34.5243 36.916C34.3731 36.916 34.2218 36.8944 34.0705 36.8458L34.0597 36.8296C33.5194 36.6783 32.6226 36.3001 31.1314 35.4735C30.159 34.9386 29.354 34.393 28.6678 33.8473C28.3058 33.5609 27.9385 33.2422 27.5603 32.864C27.5495 32.8532 27.5333 32.837 27.5225 32.8262C27.5117 32.8154 27.4954 32.7992 27.4846 32.7884C27.4738 32.7776 27.4576 32.7613 27.4468 32.7505C27.436 32.7397 27.4198 32.7235 27.409 32.7127C27.0362 32.3345 26.7121 31.9672 26.4257 31.6052C25.88 30.9244 25.3344 30.114 24.7995 29.1416C23.9729 27.645 23.5947 26.7482 23.4434 26.2133L23.4272 26.2025C23.3786 26.0512 23.357 25.8999 23.357 25.7487C23.357 25.6838 23.357 25.6352 23.3678 25.592C23.411 25.2408 23.5839 24.8896 23.8811 24.5277C23.8811 24.5223 23.8865 24.5223 23.8865 24.5169C24.2863 24.0738 24.7185 23.7281 25.1777 23.4687C25.1777 23.4687 25.1831 23.4687 25.1885 23.4687C25.6747 23.2148 26.134 23.3013 26.4527 23.674C26.4527 23.674 27.1065 24.4574 27.3874 24.841C27.6521 25.203 28.0087 25.7757 28.187 26.0944C28.5057 26.6671 28.3058 27.256 27.9925 27.4991L27.3604 28.0016C27.0416 28.2609 27.0848 28.7418 27.0848 28.7418C27.0848 28.7418 28.0195 32.2967 31.5312 33.1882Z" fill="white"/>
<defs>
<filter id="filter0_d_80_44" x="0" y="0" width="61" height="61" filterUnits="userSpaceOnUse" color-interpolation-filters="sRGB">
<feFlood flood-opacity="0" result="BackgroundImageFix"/>
<feColorMatrix in="SourceAlpha" type="matrix" values="0 0 0 0 0 0 0 0 0 0 0 0 0 0 0 0 0 0 127 0" result="hardAlpha"/>
<feOffset/>
<feGaussianBlur stdDeviation="3"/>
<feComposite in2="hardAlpha" operator="out"/>
<feColorMatrix type="matrix" values="0 0 0 0 0.403922 0 0 0 0 0.364706 0 0 0 0 0.662745 0 0 0 0.5 0"/>
<feBlend mode="normal" in2="BackgroundImageFix" result="effect1_dropShadow_80_44"/>
<feBlend mode="normal" in="SourceGraphic" in2="effect1_dropShadow_80_44" result="shape"/>
</filter>
</defs>
</svg>
